<svg xmlns="http://www.w3.org/2000/svg" xmlns:xlink="http://www.w3.org/1999/xlink" zoomAndPan="magnify" preserveAspectRatio="xMidYMid meet" version="1.0" viewBox="150.39 585.47 1182.29 329.06"><defs><g/><clipPath id="3ac7910360"><path d="M 159 585.46875 L 599 585.46875 L 599 914.53125 L 159 914.53125 Z M 159 585.46875 " clip-rule="nonzero"/></clipPath><clipPath id="e53bb08fbb"><path d="M 284.730469 585.46875 L 573.492188 585.46875 C 581.410156 585.46875 588.859375 589.222656 593.566406 595.585938 C 598.277344 601.953125 599.691406 610.171875 597.375 617.746094 L 516.523438 882.253906 C 510.660156 901.433594 492.960938 914.53125 472.90625 914.53125 L 184.144531 914.53125 C 176.226562 914.53125 168.78125 910.777344 164.070312 904.414062 C 159.359375 898.046875 157.945312 889.828125 160.261719 882.253906 L 241.113281 617.746094 C 246.976562 598.566406 264.675781 585.46875 284.730469 585.46875 Z M 284.730469 585.46875 " clip-rule="nonzero"/></clipPath><clipPath id="52b1e9c5e3"><path d="M 0 0.46875 L 440 0.46875 L 440 329.53125 L 0 329.53125 Z M 0 0.46875 " clip-rule="nonzero"/></clipPath><clipPath id="3e3bece951"><path d="M 125.730469 0.46875 L 414.492188 0.46875 C 422.410156 0.46875 429.859375 4.222656 434.566406 10.585938 C 439.277344 16.953125 440.691406 25.171875 438.375 32.746094 L 357.523438 297.253906 C 351.660156 316.433594 333.960938 329.53125 313.90625 329.53125 L 25.144531 329.53125 C 17.226562 329.53125 9.78125 325.777344 5.070312 319.414062 C 0.359375 313.046875 -1.054688 304.828125 1.261719 297.253906 L 82.113281 32.746094 C 87.976562 13.566406 105.675781 0.46875 125.730469 0.46875 Z M 125.730469 0.46875 " clip-rule="nonzero"/></clipPath><clipPath id="73e7692303"><rect x="0" width="440" y="0" height="330"/></clipPath><clipPath id="2b53f28002"><path d="M 267.617188 657 L 490.367188 657 L 490.367188 862 L 267.617188 862 Z M 267.617188 657 " clip-rule="nonzero"/></clipPath><clipPath id="4045f2118f"><path d="M 267.617188 681.871094 L 267.617188 836.773438 C 267.617188 855.414062 282.726562 870.523438 301.367188 870.523438 L 456.269531 870.523438 C 474.910156 870.523438 490.019531 855.414062 490.019531 836.773438 L 490.019531 681.871094 C 490.019531 663.230469 474.910156 648.121094 456.269531 648.121094 L 301.367188 648.121094 C 282.726562 648.121094 267.617188 663.230469 267.617188 681.871094 Z M 267.617188 681.871094 " clip-rule="nonzero"/></clipPath></defs><g clip-path="url(#3ac7910360)"><g clip-path="url(#e53bb08fbb)"><g transform="matrix(1, 0, 0, 1, 159, 585)"><g clip-path="url(#73e7692303)"><g clip-path="url(#52b1e9c5e3)"><g clip-path="url(#3e3bece951)"><path fill="#0284c7" d="M -8.605469 0.46875 L 447.714844 0.46875 L 447.714844 329.53125 L -8.605469 329.53125 Z M -8.605469 0.46875 " fill-opacity="1" fill-rule="nonzero"/></g></g></g></g></g></g><g clip-path="url(#2b53f28002)"><g clip-path="url(#4045f2118f)"><path fill="#ffffff" d="M 489.128906 680.484375 C 487.671875 674.386719 484.792969 670.371094 480.535156 668.550781 C 479.457031 668.085938 453.664062 657.210938 419.105469 657.210938 C 381.8125 657.210938 348.644531 670.316406 323.179688 695.109375 C 279.648438 737.484375 283.894531 785.199219 288.539062 821.222656 C 281.511719 830.050781 274.488281 839.253906 267.617188 848.699219 L 276.609375 855.242188 L 283.039062 859.914062 L 285.609375 861.78125 C 291.972656 853.027344 298.257812 844.753906 304.675781 836.652344 C 306.980469 836.828125 309.257812 836.992188 311.597656 837.175781 C 323.070312 838.105469 334.941406 839.070312 347.191406 839.070312 C 379.304688 839.070312 421.171875 833.117188 460.246094 786.714844 C 486.007812 756.125 493.695312 699.757812 489.128906 680.484375 Z M 445.664062 774.4375 C 411.851562 814.585938 376.910156 819.996094 347.191406 819.996094 C 336.53125 819.996094 325.886719 819.195312 315.53125 818.367188 C 351.886719 775.171875 389.546875 741.238281 426.097656 719.050781 L 417.851562 705.46875 C 380.695312 728.035156 342.574219 762.039062 305.851562 805.183594 C 302.726562 773.875 304.261719 740.136719 336.484375 708.765625 C 358.625 687.210938 386.421875 676.277344 419.105469 676.277344 C 444.207031 676.277344 464.171875 682.761719 470.734375 685.183594 C 473.988281 697.507812 467.503906 748.5 445.664062 774.4375 Z M 445.664062 774.4375 " fill-opacity="1" fill-rule="nonzero"/></g></g><g fill="#000000" fill-opacity="1"><g transform="translate(654.232369, 723.867686)"><g><path d="M 77.609375 -50.390625 L 98.265625 -50.390625 L 98.265625 -10.75 C 92.960938 -6.75 86.820312 -3.675781 79.84375 -1.53125 C 72.863281 0.601562 65.835938 1.671875 58.765625 1.671875 C 48.617188 1.671875 39.5 -0.488281 31.40625 -4.8125 C 23.3125 -9.144531 16.957031 -15.148438 12.34375 -22.828125 C 7.738281 -30.503906 5.4375 -39.179688 5.4375 -48.859375 C 5.4375 -58.535156 7.738281 -67.210938 12.34375 -74.890625 C 16.957031 -82.566406 23.359375 -88.566406 31.546875 -92.890625 C 39.734375 -97.210938 48.945312 -99.375 59.1875 -99.375 C 67.738281 -99.375 75.503906 -97.929688 82.484375 -95.046875 C 89.460938 -92.160156 95.328125 -87.972656 100.078125 -82.484375 L 85.5625 -69.09375 C 78.582031 -76.445312 70.160156 -80.125 60.296875 -80.125 C 54.066406 -80.125 48.53125 -78.816406 43.6875 -76.203125 C 38.851562 -73.597656 35.082031 -69.921875 32.375 -65.171875 C 29.675781 -60.429688 28.328125 -54.992188 28.328125 -48.859375 C 28.328125 -42.804688 29.675781 -37.40625 32.375 -32.65625 C 35.082031 -27.914062 38.832031 -24.21875 43.625 -21.5625 C 48.414062 -18.914062 53.878906 -17.59375 60.015625 -17.59375 C 66.523438 -17.59375 72.390625 -18.988281 77.609375 -21.78125 Z M 77.609375 -50.390625 "/></g></g></g><g fill="#000000" fill-opacity="1"><g transform="translate(761.980681, 723.867686)"><g><path d="M 73.84375 0 L 55 -27.21875 L 34.203125 -27.21875 L 34.203125 0 L 11.578125 0 L 11.578125 -97.703125 L 53.875 -97.703125 C 62.53125 -97.703125 70.046875 -96.257812 76.421875 -93.375 C 82.796875 -90.488281 87.703125 -86.394531 91.140625 -81.09375 C 94.585938 -75.789062 96.3125 -69.507812 96.3125 -62.25 C 96.3125 -54.988281 94.566406 -48.726562 91.078125 -43.46875 C 87.585938 -38.21875 82.628906 -34.195312 76.203125 -31.40625 L 98.125 0 Z M 73.421875 -62.25 C 73.421875 -67.738281 71.648438 -71.945312 68.109375 -74.875 C 64.578125 -77.8125 59.414062 -79.28125 52.625 -79.28125 L 34.203125 -79.28125 L 34.203125 -45.21875 L 52.625 -45.21875 C 59.414062 -45.21875 64.578125 -46.707031 68.109375 -49.6875 C 71.648438 -52.664062 73.421875 -56.851562 73.421875 -62.25 Z M 73.421875 -62.25 "/></g></g></g><g fill="#000000" fill-opacity="1"><g transform="translate(864.704443, 723.867686)"><g><path d="M 58.90625 1.671875 C 48.757812 1.671875 39.613281 -0.515625 31.46875 -4.890625 C 23.332031 -9.265625 16.957031 -15.285156 12.34375 -22.953125 C 7.738281 -30.628906 5.4375 -39.265625 5.4375 -48.859375 C 5.4375 -58.441406 7.738281 -67.070312 12.34375 -74.75 C 16.957031 -82.425781 23.332031 -88.445312 31.46875 -92.8125 C 39.613281 -97.1875 48.757812 -99.375 58.90625 -99.375 C 69.039062 -99.375 78.15625 -97.1875 86.25 -92.8125 C 94.351562 -88.445312 100.726562 -82.425781 105.375 -74.75 C 110.03125 -67.070312 112.359375 -58.441406 112.359375 -48.859375 C 112.359375 -39.265625 110.03125 -30.628906 105.375 -22.953125 C 100.726562 -15.285156 94.351562 -9.265625 86.25 -4.890625 C 78.15625 -0.515625 69.039062 1.671875 58.90625 1.671875 Z M 58.90625 -17.59375 C 64.675781 -17.59375 69.882812 -18.914062 74.53125 -21.5625 C 79.1875 -24.21875 82.835938 -27.914062 85.484375 -32.65625 C 88.140625 -37.40625 89.46875 -42.804688 89.46875 -48.859375 C 89.46875 -54.898438 88.140625 -60.289062 85.484375 -65.03125 C 82.835938 -69.78125 79.1875 -73.484375 74.53125 -76.140625 C 69.882812 -78.796875 64.675781 -80.125 58.90625 -80.125 C 53.132812 -80.125 47.921875 -78.796875 43.265625 -76.140625 C 38.617188 -73.484375 34.96875 -69.78125 32.3125 -65.03125 C 29.65625 -60.289062 28.328125 -54.898438 28.328125 -48.859375 C 28.328125 -42.804688 29.65625 -37.40625 32.3125 -32.65625 C 34.96875 -27.914062 38.617188 -24.21875 43.265625 -21.5625 C 47.921875 -18.914062 53.132812 -17.59375 58.90625 -17.59375 Z M 58.90625 -17.59375 "/></g></g></g><g fill="#000000" fill-opacity="1"><g transform="translate(982.641384, 723.867686)"><g><path d="M 159.265625 -97.703125 L 127.296875 0 L 103.015625 0 L 81.515625 -66.15625 L 59.328125 0 L 35.171875 0 L 3.078125 -97.703125 L 26.515625 -97.703125 L 48.578125 -29.03125 L 71.609375 -97.703125 L 92.546875 -97.703125 L 114.875 -28.46875 L 137.625 -97.703125 Z M 159.265625 -97.703125 "/></g></g></g><g fill="#000000" fill-opacity="1"><g transform="translate(1145.101285, 723.867686)"><g><path d="M 31.828125 -79.28125 L 0.5625 -79.28125 L 0.5625 -97.703125 L 85.703125 -97.703125 L 85.703125 -79.28125 L 54.4375 -79.28125 L 54.4375 0 L 31.828125 0 Z M 31.828125 -79.28125 "/></g></g></g><g fill="#000000" fill-opacity="1"><g transform="translate(1231.49529, 723.867686)"><g><path d="M 101.1875 -97.703125 L 101.1875 0 L 78.578125 0 L 78.578125 -40.0625 L 34.203125 -40.0625 L 34.203125 0 L 11.578125 0 L 11.578125 -97.703125 L 34.203125 -97.703125 L 34.203125 -59.1875 L 78.578125 -59.1875 L 78.578125 -97.703125 Z M 101.1875 -97.703125 "/></g></g></g><g fill="#000000" fill-opacity="1"><g transform="translate(1344.408095, 723.867686)"><g/></g></g><g fill="#000000" fill-opacity="1"><g transform="translate(659.310337, 875.132137)"><g><path d="M 34.203125 -79.5625 L 34.203125 -53.734375 L 79.421875 -53.734375 L 79.421875 -35.59375 L 34.203125 -35.59375 L 34.203125 0 L 11.578125 0 L 11.578125 -97.703125 L 85.421875 -97.703125 L 85.421875 -79.5625 Z M 34.203125 -79.5625 "/></g></g></g><g fill="#000000" fill-opacity="1"><g transform="translate(748.635357, 875.132137)"><g><path d="M 11.578125 -97.703125 L 34.203125 -97.703125 L 34.203125 0 L 11.578125 0 Z M 11.578125 -97.703125 "/></g></g></g><g fill="#000000" fill-opacity="1"><g transform="translate(794.554004, 875.132137)"><g><path d="M 101.1875 -97.703125 L 101.1875 0 L 82.625 0 L 33.921875 -59.328125 L 33.921875 0 L 11.578125 0 L 11.578125 -97.703125 L 30.28125 -97.703125 L 78.859375 -38.390625 L 78.859375 -97.703125 Z M 101.1875 -97.703125 "/></g></g></g><g fill="#000000" fill-opacity="1"><g transform="translate(907.466428, 875.132137)"><g><path d="M 11.578125 -97.703125 L 55.96875 -97.703125 C 66.570312 -97.703125 75.945312 -95.675781 84.09375 -91.625 C 92.238281 -87.582031 98.566406 -81.882812 103.078125 -74.53125 C 107.585938 -67.1875 109.84375 -58.628906 109.84375 -48.859375 C 109.84375 -39.085938 107.585938 -30.523438 103.078125 -23.171875 C 98.566406 -15.816406 92.238281 -10.113281 84.09375 -6.0625 C 75.945312 -2.019531 66.570312 0 55.96875 0 L 11.578125 0 Z M 54.859375 -18.5625 C 64.628906 -18.5625 72.421875 -21.28125 78.234375 -26.71875 C 84.046875 -32.164062 86.953125 -39.546875 86.953125 -48.859375 C 86.953125 -58.160156 84.046875 -65.53125 78.234375 -70.96875 C 72.421875 -76.414062 64.628906 -79.140625 54.859375 -79.140625 L 34.203125 -79.140625 L 34.203125 -18.5625 Z M 54.859375 -18.5625 "/></g></g></g><g fill="#000000" fill-opacity="1"><g transform="translate(1022.891093, 875.132137)"><g><path d="M 87.234375 -18.140625 L 87.234375 0 L 11.578125 0 L 11.578125 -97.703125 L 85.421875 -97.703125 L 85.421875 -79.5625 L 34.0625 -79.5625 L 34.0625 -58.34375 L 79.421875 -58.34375 L 79.421875 -40.75 L 34.0625 -40.75 L 34.0625 -18.140625 Z M 87.234375 -18.140625 "/></g></g></g><g fill="#000000" fill-opacity="1"><g transform="translate(1116.682352, 875.132137)"><g><path d="M 73.84375 0 L 55 -27.21875 L 34.203125 -27.21875 L 34.203125 0 L 11.578125 0 L 11.578125 -97.703125 L 53.875 -97.703125 C 62.53125 -97.703125 70.046875 -96.257812 76.421875 -93.375 C 82.796875 -90.488281 87.703125 -86.394531 91.140625 -81.09375 C 94.585938 -75.789062 96.3125 -69.507812 96.3125 -62.25 C 96.3125 -54.988281 94.566406 -48.726562 91.078125 -43.46875 C 87.585938 -38.21875 82.628906 -34.195312 76.203125 -31.40625 L 98.125 0 Z M 73.421875 -62.25 C 73.421875 -67.738281 71.648438 -71.945312 68.109375 -74.875 C 64.578125 -77.8125 59.414062 -79.28125 52.625 -79.28125 L 34.203125 -79.28125 L 34.203125 -45.21875 L 52.625 -45.21875 C 59.414062 -45.21875 64.578125 -46.707031 68.109375 -49.6875 C 71.648438 -52.664062 73.421875 -56.851562 73.421875 -62.25 Z M 73.421875 -62.25 "/></g></g></g></svg>