<svg xmlns="http://www.w3.org/2000/svg" xmlns:xlink="http://www.w3.org/1999/xlink" width="2000" zoomAndPan="magnify" viewBox="0 0 1500 1499.999933" height="2000" preserveAspectRatio="xMidYMid meet" version="1.0"><defs><g/><clipPath id="acf2aa510e"><path d="M 0.441406 0.683594 L 1115 0.683594 L 1115 257.5625 L 0.441406 257.5625 Z M 0.441406 0.683594 " clip-rule="nonzero"/></clipPath><clipPath id="31381cdab2"><path d="M 101.027344 0.683594 L 1114.4375 0.683594 L 1013.855469 257.5625 L 0.441406 257.5625 Z M 101.027344 0.683594 " clip-rule="nonzero"/></clipPath><clipPath id="9a8468ca88"><path d="M 0.441406 0.683594 L 1114.441406 0.683594 L 1114.441406 257.5625 L 0.441406 257.5625 Z M 0.441406 0.683594 " clip-rule="nonzero"/></clipPath><clipPath id="8cd8796aa7"><path d="M 101.027344 0.683594 L 1114.4375 0.683594 L 1013.855469 257.5625 L 0.441406 257.5625 Z M 101.027344 0.683594 " clip-rule="nonzero"/></clipPath><clipPath id="74713ba5e0"><rect x="0" width="1115" y="0" height="258"/></clipPath><clipPath id="48eda47a81"><path d="M 19.582031 25.605469 L 1133.730469 25.605469 L 1133.730469 282.394531 L 19.582031 282.394531 Z M 19.582031 25.605469 " clip-rule="nonzero"/></clipPath><clipPath id="7467921422"><path d="M 120.160156 25.605469 L 1133.527344 25.605469 L 1032.949219 282.476562 L 19.582031 282.476562 Z M 120.160156 25.605469 " clip-rule="nonzero"/></clipPath><clipPath id="301e4a9560"><path d="M 160.675781 74 L 280.625 74 L 280.625 185 L 160.675781 185 Z M 160.675781 74 " clip-rule="nonzero"/></clipPath><clipPath id="5b20768b07"><rect x="0" width="1152" y="0" height="296"/></clipPath></defs><g transform="matrix(1, 0, 0, 1, 183, 588)"><g clip-path="url(#5b20768b07)"><g clip-path="url(#acf2aa510e)"><g clip-path="url(#31381cdab2)"><g transform="matrix(1, 0, 0, 1, 0, 0.000000000000113687)"><g clip-path="url(#74713ba5e0)"><g clip-path="url(#9a8468ca88)"><g clip-path="url(#8cd8796aa7)"><path fill="#0284c7" d="M 0.441406 0.683594 L 1114.265625 0.683594 L 1114.265625 257.5625 L 0.441406 257.5625 Z M 0.441406 0.683594 " fill-opacity="1" fill-rule="nonzero"/></g></g></g></g></g></g><g clip-path="url(#48eda47a81)"><g clip-path="url(#7467921422)"><path stroke-linecap="butt" transform="matrix(0.844707, 0, 0, 0.844707, 19.580553, 25.604517)" fill="none" stroke-linejoin="miter" d="M 119.070373 0.00112674 L 1318.737156 0.00112674 L 1199.668533 304.095953 L 0.00175008 304.095953 Z M 119.070373 0.00112674 " stroke="#0284c7" stroke-width="7.103052" stroke-opacity="1" stroke-miterlimit="4"/></g></g><g clip-path="url(#301e4a9560)"><path fill="#ffffff" d="M 279.957031 86.753906 C 279.171875 83.472656 277.621094 81.308594 275.332031 80.328125 C 274.75 80.078125 260.859375 74.222656 242.25 74.222656 C 222.167969 74.222656 204.308594 81.277344 190.597656 94.628906 C 167.152344 117.449219 169.441406 143.140625 171.941406 162.539062 C 168.15625 167.292969 164.375 172.25 160.675781 177.335938 L 165.519531 180.859375 L 168.980469 183.375 L 170.363281 184.382812 C 173.789062 179.667969 177.175781 175.210938 180.632812 170.847656 C 181.871094 170.945312 183.097656 171.03125 184.359375 171.128906 C 190.539062 171.632812 196.929688 172.152344 203.523438 172.152344 C 220.816406 172.152344 243.363281 168.945312 264.402344 143.957031 C 278.277344 127.484375 282.417969 97.132812 279.957031 86.753906 Z M 256.550781 137.347656 C 238.34375 158.964844 219.527344 161.878906 203.523438 161.878906 C 197.785156 161.878906 192.054688 161.449219 186.476562 161 C 206.054688 137.742188 226.332031 119.46875 246.015625 107.523438 L 241.578125 100.207031 C 221.566406 112.359375 201.039062 130.671875 181.265625 153.902344 C 179.582031 137.042969 180.410156 118.875 197.757812 101.984375 C 209.683594 90.375 224.648438 84.488281 242.25 84.488281 C 255.769531 84.488281 266.519531 87.980469 270.050781 89.285156 C 271.804688 95.921875 268.3125 123.378906 256.550781 137.347656 Z M 256.550781 137.347656 " fill-opacity="1" fill-rule="nonzero"/></g><g fill="#ffffff" fill-opacity="1"><g transform="translate(319.852725, 152.351772)"><g><path d="M 41.015625 -23.65625 L 45.8125 -23.65625 L 45.8125 -5.609375 C 43.601562 -3.671875 40.988281 -2.179688 37.96875 -1.140625 C 34.957031 -0.109375 31.785156 0.40625 28.453125 0.40625 C 23.722656 0.40625 19.460938 -0.628906 15.671875 -2.703125 C 11.890625 -4.773438 8.914062 -7.644531 6.75 -11.3125 C 4.59375 -14.988281 3.515625 -19.101562 3.515625 -23.65625 C 3.515625 -28.207031 4.59375 -32.316406 6.75 -35.984375 C 8.914062 -39.660156 11.890625 -42.53125 15.671875 -44.59375 C 19.460938 -46.664062 23.742188 -47.703125 28.515625 -47.703125 C 32.117188 -47.703125 35.429688 -47.128906 38.453125 -45.984375 C 41.472656 -44.835938 44.019531 -43.140625 46.09375 -40.890625 L 42.984375 -37.703125 C 39.242188 -41.398438 34.488281 -43.25 28.71875 -43.25 C 24.882812 -43.25 21.425781 -42.40625 18.34375 -40.71875 C 15.257812 -39.03125 12.835938 -36.6875 11.078125 -33.6875 C 9.328125 -30.6875 8.453125 -27.34375 8.453125 -23.65625 C 8.453125 -19.957031 9.328125 -16.617188 11.078125 -13.640625 C 12.835938 -10.671875 15.25 -8.328125 18.3125 -6.609375 C 21.375 -4.898438 24.820312 -4.046875 28.65625 -4.046875 C 33.519531 -4.046875 37.640625 -5.265625 41.015625 -7.703125 Z M 41.015625 -23.65625 "/></g></g></g><g fill="#ffffff" fill-opacity="1"><g transform="translate(372.15693, 152.351772)"><g><path d="M 40 0 L 29.1875 -15.203125 C 27.976562 -15.066406 26.71875 -15 25.40625 -15 L 12.703125 -15 L 12.703125 0 L 7.703125 0 L 7.703125 -47.296875 L 25.40625 -47.296875 C 31.445312 -47.296875 36.175781 -45.851562 39.59375 -42.96875 C 43.019531 -40.09375 44.734375 -36.128906 44.734375 -31.078125 C 44.734375 -27.390625 43.796875 -24.269531 41.921875 -21.71875 C 40.054688 -19.175781 37.390625 -17.34375 33.921875 -16.21875 L 45.484375 0 Z M 25.28125 -19.265625 C 29.957031 -19.265625 33.535156 -20.300781 36.015625 -22.375 C 38.492188 -24.445312 39.734375 -27.347656 39.734375 -31.078125 C 39.734375 -34.910156 38.492188 -37.851562 36.015625 -39.90625 C 33.535156 -41.957031 29.957031 -42.984375 25.28125 -42.984375 L 12.703125 -42.984375 L 12.703125 -19.265625 Z M 25.28125 -19.265625 "/></g></g></g><g fill="#ffffff" fill-opacity="1"><g transform="translate(421.082319, 152.351772)"><g><path d="M 28.375 0.40625 C 23.695312 0.40625 19.453125 -0.640625 15.640625 -2.734375 C 11.835938 -4.828125 8.863281 -7.695312 6.71875 -11.34375 C 4.582031 -15 3.515625 -19.101562 3.515625 -23.65625 C 3.515625 -28.207031 4.582031 -32.304688 6.71875 -35.953125 C 8.863281 -39.597656 11.835938 -42.46875 15.640625 -44.5625 C 19.453125 -46.65625 23.695312 -47.703125 28.375 -47.703125 C 33.0625 -47.703125 37.285156 -46.664062 41.046875 -44.59375 C 44.816406 -42.53125 47.78125 -39.660156 49.9375 -35.984375 C 52.101562 -32.316406 53.1875 -28.207031 53.1875 -23.65625 C 53.1875 -19.101562 52.101562 -14.988281 49.9375 -11.3125 C 47.78125 -7.644531 44.816406 -4.773438 41.046875 -2.703125 C 37.285156 -0.628906 33.0625 0.40625 28.375 0.40625 Z M 28.375 -4.046875 C 32.113281 -4.046875 35.492188 -4.890625 38.515625 -6.578125 C 41.535156 -8.273438 43.898438 -10.617188 45.609375 -13.609375 C 47.328125 -16.609375 48.1875 -19.957031 48.1875 -23.65625 C 48.1875 -27.34375 47.328125 -30.6875 45.609375 -33.6875 C 43.898438 -36.6875 41.535156 -39.03125 38.515625 -40.71875 C 35.492188 -42.40625 32.113281 -43.25 28.375 -43.25 C 24.644531 -43.25 21.257812 -42.40625 18.21875 -40.71875 C 15.175781 -39.03125 12.785156 -36.6875 11.046875 -33.6875 C 9.316406 -30.6875 8.453125 -27.34375 8.453125 -23.65625 C 8.453125 -19.957031 9.316406 -16.609375 11.046875 -13.609375 C 12.785156 -10.617188 15.175781 -8.273438 18.21875 -6.578125 C 21.257812 -4.890625 24.644531 -4.046875 28.375 -4.046875 Z M 28.375 -4.046875 "/></g></g></g><g fill="#ffffff" fill-opacity="1"><g transform="translate(477.846577, 152.351772)"><g><path d="M 72.640625 -47.296875 L 56.703125 0 L 51.421875 0 L 37.578125 -40.34375 L 23.65625 0 L 18.453125 0 L 2.5 -47.296875 L 7.640625 -47.296875 L 21.28125 -6.625 L 35.40625 -47.296875 L 40.078125 -47.296875 L 54 -6.421875 L 67.84375 -47.296875 Z M 72.640625 -47.296875 "/></g></g></g><g fill="#ffffff" fill-opacity="1"><g transform="translate(552.991659, 152.351772)"><g><path d="M 16.890625 -42.984375 L 0.265625 -42.984375 L 0.265625 -47.296875 L 38.515625 -47.296875 L 38.515625 -42.984375 L 21.890625 -42.984375 L 21.890625 0 L 16.890625 0 Z M 16.890625 -42.984375 "/></g></g></g><g fill="#ffffff" fill-opacity="1"><g transform="translate(591.848139, 152.351772)"><g><path d="M 47.234375 -47.296875 L 47.234375 0 L 42.296875 0 L 42.296875 -21.828125 L 12.703125 -21.828125 L 12.703125 0 L 7.703125 0 L 7.703125 -47.296875 L 12.703125 -47.296875 L 12.703125 -26.21875 L 42.296875 -26.21875 L 42.296875 -47.296875 Z M 47.234375 -47.296875 "/></g></g></g><g fill="#ffffff" fill-opacity="1"><g transform="translate(646.855392, 152.351772)"><g/></g></g><g fill="#ffffff" fill-opacity="1"><g transform="translate(664.627988, 152.351772)"><g><path d="M 12.703125 -42.984375 L 12.703125 -24.390625 L 37.171875 -24.390625 L 37.171875 -20.078125 L 12.703125 -20.078125 L 12.703125 0 L 7.703125 0 L 7.703125 -47.296875 L 40.140625 -47.296875 L 40.140625 -42.984375 Z M 12.703125 -42.984375 "/></g></g></g><g fill="#ffffff" fill-opacity="1"><g transform="translate(707.471513, 152.351772)"><g><path d="M 7.703125 -47.296875 L 12.703125 -47.296875 L 12.703125 0 L 7.703125 0 Z M 7.703125 -47.296875 "/></g></g></g><g fill="#ffffff" fill-opacity="1"><g transform="translate(727.947156, 152.351772)"><g><path d="M 47.234375 -47.296875 L 47.234375 0 L 43.109375 0 L 12.703125 -38.390625 L 12.703125 0 L 7.703125 0 L 7.703125 -47.296875 L 11.828125 -47.296875 L 42.296875 -8.921875 L 42.296875 -47.296875 Z M 47.234375 -47.296875 "/></g></g></g><g fill="#ffffff" fill-opacity="1"><g transform="translate(782.954435, 152.351772)"><g><path d="M 7.703125 -47.296875 L 26.96875 -47.296875 C 31.96875 -47.296875 36.378906 -46.296875 40.203125 -44.296875 C 44.035156 -42.296875 47.007812 -39.503906 49.125 -35.921875 C 51.25 -32.335938 52.3125 -28.25 52.3125 -23.65625 C 52.3125 -19.0625 51.25 -14.972656 49.125 -11.390625 C 47.007812 -7.804688 44.035156 -5.007812 40.203125 -3 C 36.378906 -1 31.96875 0 26.96875 0 L 7.703125 0 Z M 26.6875 -4.328125 C 30.832031 -4.328125 34.457031 -5.148438 37.5625 -6.796875 C 40.675781 -8.441406 43.085938 -10.710938 44.796875 -13.609375 C 46.515625 -16.515625 47.375 -19.863281 47.375 -23.65625 C 47.375 -27.4375 46.515625 -30.78125 44.796875 -33.6875 C 43.085938 -36.59375 40.675781 -38.867188 37.5625 -40.515625 C 34.457031 -42.160156 30.832031 -42.984375 26.6875 -42.984375 L 12.703125 -42.984375 L 12.703125 -4.328125 Z M 26.6875 -4.328125 "/></g></g></g><g fill="#ffffff" fill-opacity="1"><g transform="translate(838.84019, 152.351772)"><g><path d="M 41.15625 -4.328125 L 41.15625 0 L 7.703125 0 L 7.703125 -47.296875 L 40.140625 -47.296875 L 40.140625 -42.984375 L 12.703125 -42.984375 L 12.703125 -26.15625 L 37.171875 -26.15625 L 37.171875 -21.890625 L 12.703125 -21.890625 L 12.703125 -4.328125 Z M 41.15625 -4.328125 "/></g></g></g><g fill="#ffffff" fill-opacity="1"><g transform="translate(884.116424, 152.351772)"><g><path d="M 40 0 L 29.1875 -15.203125 C 27.976562 -15.066406 26.71875 -15 25.40625 -15 L 12.703125 -15 L 12.703125 0 L 7.703125 0 L 7.703125 -47.296875 L 25.40625 -47.296875 C 31.445312 -47.296875 36.175781 -45.851562 39.59375 -42.96875 C 43.019531 -40.09375 44.734375 -36.128906 44.734375 -31.078125 C 44.734375 -27.390625 43.796875 -24.269531 41.921875 -21.71875 C 40.054688 -19.175781 37.390625 -17.34375 33.921875 -16.21875 L 45.484375 0 Z M 25.28125 -19.265625 C 29.957031 -19.265625 33.535156 -20.300781 36.015625 -22.375 C 38.492188 -24.445312 39.734375 -27.347656 39.734375 -31.078125 C 39.734375 -34.910156 38.492188 -37.851562 36.015625 -39.90625 C 33.535156 -41.957031 29.957031 -42.984375 25.28125 -42.984375 L 12.703125 -42.984375 L 12.703125 -19.265625 Z M 25.28125 -19.265625 "/></g></g></g></g></g></svg>